PathFileType	4	(x/y/z)	S01_M20_T04.trc
DataRate	CameraRate	NumFrames	NumMarkers	Units	OrigDataRate	OrigDataStartFrame	OrigNumFrames
240	240	4	51	mm	240	631	720
Frame#	Time	Sternum			R.Acromium			L.Acromium			Top.Head			R.ASIS			L.ASIS			R.PSIS			L.PSIS			R.Great.Tro			L.Great.Tro			R.Iliac.Crest			L.Iliac.Crest			V.Sacral			R.Thigh.Upper.Post			R.Thigh.Lower.Ant			R.Thigh.Lower.Post			R.Thigh.Upper.Ant			R.Knee.Lat			R.Knee.Med			R.Shank.Upper.Post			R.Shank.Lower.Ant			R.Shank.Lower.Post			R.Shank.Upper.Ant			R.Ankle.Lat			R.Ankle.Med			R.Heel.Upper			R.Heel.Med			R.Heel.Lat			R.Toe.Lat			R.Toe.Med			R.Toe.Tip			L.Thigh.Upper.Post			L.Thigh.Lower.Ant			L.Thigh.Lower.Post			L.Thigh.Upper.Ant			L.Knee.Lat			L.Knee.Med			L.Shank.Upper.Post			L.Shank.Lower.Ant			L.Shank.Lower.Post			L.Shank.Upper.Ant			L.Ankle.Lat			L.Ankle.Med			L.Heel.Upper			L.Heel.Med			L.Heel.Lat			L.Toe.Lat			L.Toe.Med			L.Toe.Tip			Cervical.Spine			Back			
		X1	Y1	Z1	X2	Y2	Z2	X3	Y3	Z3	X4	Y4	Z4	X5	Y5	Z5	X6	Y6	Z6	X7	Y7	Z7	X8	Y8	Z8	X9	Y9	Z9	X10	Y10	Z10	X11	Y11	Z11	X12	Y12	Z12	X13	Y13	Z13	X14	Y14	Z14	X15	Y15	Z15	X16	Y16	Z16	X17	Y17	Z17	X18	Y18	Z18	X19	Y19	Z19	X20	Y20	Z20	X21	Y21	Z21	X22	Y22	Z22	X23	Y23	Z23	X24	Y24	Z24	X25	Y25	Z25	X26	Y26	Z26	X27	Y27	Z27	X28	Y28	Z28	X29	Y29	Z29	X30	Y30	Z30	X31	Y31	Z31	X32	Y32	Z32	X33	Y33	Z33	X34	Y34	Z34	X35	Y35	Z35	X36	Y36	Z36	X37	Y37	Z37	X38	Y38	Z38	X39	Y39	Z39	X40	Y40	Z40	X41	Y41	Z41	X42	Y42	Z42	X43	Y43	Z43	X44	Y44	Z44	X45	Y45	Z45	X46	Y46	Z46	X47	Y47	Z47	X48	Y48	Z48	X49	Y49	Z49	X50	Y50	Z50	X51	Y51	Z51	

631	2.625	224.94	1270.9	366.52	202.03	1522.9	163.53	369.63	1559	441.25	256.26	1848.7	305.52	229.91	1022.1	206.47	328.73	1034.9	454.26	480.57	1093.8	204.62	519.93	1095	300.46	283.49	971.76	106.57	462.95	1002.7	490.23	276.94	1123.2	111.13	449.91	1131.4	482.16	518.47	1059.7	249	320.65	662.09	148.23	265.78	594.01	204.45	329.39	577.4	177.28	255.31	679.59	175.45	314.22	516.03	196.46	359.82	532.9	330.25	385.71	363.65	162.98	362.37	277.66	228.54	405.96	296.92	174.51	340.83	346.15	209.14	453.77	100	217.93	464.08	114.65	314.06	545.17	73.199	247.53	543.91	44.838	280.8	520.11	42.753	220.6	321.68	34.234	246.71	345.13	53.39	369.81	264.86	67.27	344.17	453.54	718.89	522.29	381.79	672.68	592.66	421.3	633.9	535.45	418.74	758.59	571.8	388.45	568.43	588.52	270.29	551.48	500.64	480.52	471.77	541.88	462.05	362.7	556.09	508.03	400.27	528.65	437.79	434.12	573.59	574.13	202.33	461.58	485	185.95	418.3	594.36	190.85	372.49	571.08	159.79	353.53	618.63	166.71	393.12	532.39	82.189	564.03	423.25	70.114	509.29	423.17	62.726	590.44	351.57	1606.2	251.11	471.62	1309	213.07
632	2.6292	221.55	1270.9	365.84	199.51	1522.8	162.82	365.57	1559.1	441.37	252.79	1848.8	304.89	227.75	1022.1	205.54	324.75	1034.9	454.03	478.51	1094	205.66	517.04	1095.1	301.86	282.31	971.83	105.98	458.31	1002.8	491.34	275.42	1123.2	110.57	445.82	1131.5	482.75	515.98	1059.8	250.33	320.75	662.36	147.45	265.94	593.87	203.28	329.78	577.66	176.39	255.18	679.5	174.45	314.79	516.19	195.39	359.72	533.03	329.47	386.43	363.77	162.26	362.78	277.8	227.69	406.62	297.04	173.92	341.34	346.3	208.23	453.87	99.935	217.77	463.92	114.78	313.86	545.18	73.195	247.52	543.95	44.854	280.81	520.13	42.746	220.61	321.69	34.146	246.61	345.08	53.602	369.6	264.82	67.447	343.92	445.96	718.79	523.41	372.67	672.99	592.46	412.88	634.01	535.87	410.59	758.68	572.39	378.56	568.66	588.43	261.89	552.72	498.35	470.44	470.86	543.85	450.45	362	557.72	497.4	399.01	531.19	426.63	433.7	574.68	562.67	200.23	465.69	474.19	184.94	420.49	584.58	188.35	377.01	561.33	157.57	357.61	608.11	163.93	398.23	517.16	80.798	567.39	409.08	70.026	510.33	407.18	62.744	591.49	348.48	1606.3	251.08	469.18	1309.3	213.66
633	2.6333	218.16	1270.8	365.17	196.97	1522.7	162.13	361.49	1559.2	441.49	249.29	1848.8	304.28	225.59	1022	204.61	320.76	1034.9	453.8	476.42	1094.2	206.71	514.14	1095.1	303.28	281.11	971.87	105.4	453.64	1002.8	492.45	273.89	1123.2	110.02	441.69	1131.5	483.36	513.46	1059.9	251.67	320.8	662.62	146.7	266.07	593.72	202.15	330.13	577.9	175.53	255.02	679.39	173.49	315.33	516.33	194.35	359.61	533.15	328.72	387.12	363.88	161.57	363.16	277.93	226.87	407.28	297.16	173.35	341.84	346.44	207.36	453.98	99.87	217.61	463.76	114.9	313.67	545.18	73.191	247.52	543.99	44.864	280.83	520.15	42.741	220.62	321.69	34.06	246.51	345.03	53.802	369.4	264.79	67.615	343.69	438.39	718.69	524.45	363.6	673.3	592.16	404.51	634.13	536.22	402.44	758.77	572.9	368.72	568.9	588.25	253.61	553.94	495.99	460.34	469.93	545.75	438.8	361.31	559.28	486.71	397.73	533.66	415.48	433.3	575.68	551.07	198.1	469.77	463.26	183.89	422.67	574.64	185.75	381.54	551.42	155.26	361.71	597.4	161.08	403.34	501.8	79.431	570.67	394.83	69.95	511.32	391.11	62.814	592.45	345.38	1606.4	251.07	466.72	1309.5	214.26
634	2.6375	214.76	1270.6	364.52	194.41	1522.5	161.46	357.41	1559.3	441.62	245.78	1848.8	303.69	223.44	1021.9	203.68	316.76	1034.9	453.57	474.32	1094.4	207.8	511.21	1095	304.71	279.9	971.89	104.84	448.94	1002.8	493.54	272.35	1123.2	109.49	437.52	1131.5	483.97	510.92	1059.9	253.03	320.81	662.87	145.99	266.16	593.57	201.07	330.44	578.13	174.71	254.83	679.27	172.56	315.83	516.46	193.36	359.49	533.26	327.99	387.79	363.99	160.9	363.52	278.05	226.07	407.93	297.27	172.81	342.31	346.58	206.51	454.08	99.809	217.47	463.59	115.02	313.49	545.19	73.187	247.52	544.02	44.869	280.85	520.17	42.739	220.64	321.69	33.978	246.41	344.98	53.989	369.21	264.76	67.772	343.46	430.83	718.59	525.42	354.57	673.61	591.76	396.18	634.24	536.5	394.32	758.85	573.32	358.93	569.14	587.97	245.43	555.15	493.59	450.22	468.97	547.59	427.13	360.62	560.75	475.97	396.41	536.08	404.33	432.89	576.59	539.33	195.92	473.83	452.24	182.79	424.83	564.53	183.08	386.09	541.34	152.86	365.83	586.51	158.16	408.43	486.31	78.097	573.86	380.51	69.891	512.25	374.97	62.942	593.32	342.26	1606.5	251.06	464.24	1309.7	214.87
